<svg width="72" height="72" viewBox="0 0 72 72" fill="none" xmlns="http://www.w3.org/2000/svg">
<g id="Frame">
<path id="Vector" opacity="0.4" d="M36 66.036C52.569 66.036 66 52.605 66 36.036C66 19.467 52.569 6.03601 36 6.03601C19.431 6.03601 6 19.467 6 36.036C6 52.605 19.431 66.036 36 66.036Z" fill="white"/>
<path id="Vector_2" d="M36 20.823C29.79 20.823 24.75 25.863 24.75 32.073C24.75 38.163 29.52 43.113 35.85 43.293H36.39C39.3021 43.1972 42.063 41.9733 44.0895 39.8797C46.1159 37.786 47.2492 34.9867 47.25 32.073C47.25 25.863 42.21 20.823 36 20.823ZM56.337 58.074C50.8004 63.1914 43.5363 66.0306 35.997 66.024C28.137 66.024 20.997 62.994 15.657 58.074C16.377 55.344 18.327 52.854 21.177 50.934C29.367 45.474 42.687 45.474 50.817 50.934C53.697 52.854 55.617 55.344 56.337 58.074Z" fill="white"/>
</g>
</svg>
